<svg width="98" height="99" viewBox="0 0 98 99" fill="none" xmlns="http://www.w3.org/2000/svg">
<path opacity="0.1" d="M19.5958 0.187744H0V19.7836H19.5958V0.187744Z" fill="#B36FF7" style="fill:#B36FF7;fill:color(display-p3 0.7020 0.4353 0.9686);fill-opacity:1;"/>
<path opacity="0.25" d="M39.1915 0.187744H19.5957V19.7836H39.1915V0.187744Z" fill="#B36FF7" style="fill:#B36FF7;fill:color(display-p3 0.7020 0.4353 0.9686);fill-opacity:1;"/>
<path opacity="0.1" d="M58.7902 0.187744H39.1943V19.7836H58.7902V0.187744Z" fill="#B36FF7" style="fill:#B36FF7;fill:color(display-p3 0.7020 0.4353 0.9686);fill-opacity:1;"/>
<path opacity="0.1" d="M97.9816 0.187744H78.3857V19.7836H97.9816V0.187744Z" fill="#B36FF7" style="fill:#B36FF7;fill:color(display-p3 0.7020 0.4353 0.9686);fill-opacity:1;"/>
<path opacity="0.75" d="M78.3859 0.187744H58.79V19.7836H78.3859V0.187744Z" fill="#B36FF7" style="fill:#B36FF7;fill:color(display-p3 0.7020 0.4353 0.9686);fill-opacity:1;"/>
<path d="M39.1915 19.7836H19.5957V39.3794H39.1915V19.7836Z" fill="#B36FF7" style="fill:#B36FF7;fill:color(display-p3 0.7020 0.4353 0.9686);fill-opacity:1;"/>
<path opacity="0.1" d="M58.7902 19.7836H39.1943V39.3794H58.7902V19.7836Z" fill="#B36FF7" style="fill:#B36FF7;fill:color(display-p3 0.7020 0.4353 0.9686);fill-opacity:1;"/>
<path d="M78.3859 19.7836H58.79V39.3794H78.3859V19.7836Z" fill="#B36FF7" style="fill:#B36FF7;fill:color(display-p3 0.7020 0.4353 0.9686);fill-opacity:1;"/>
<path opacity="0.25" d="M19.5958 19.7836H0V39.3794H19.5958V19.7836Z" fill="#B36FF7" style="fill:#B36FF7;fill:color(display-p3 0.7020 0.4353 0.9686);fill-opacity:1;"/>
<path opacity="0.1" d="M97.9816 19.7836H78.3857V39.3794H97.9816V19.7836Z" fill="#B36FF7" style="fill:#B36FF7;fill:color(display-p3 0.7020 0.4353 0.9686);fill-opacity:1;"/>
<path opacity="0.75" d="M19.5958 39.382H0V58.9778H19.5958V39.382Z" fill="#B36FF7" style="fill:#B36FF7;fill:color(display-p3 0.7020 0.4353 0.9686);fill-opacity:1;"/>
<path d="M39.1915 39.382H19.5957V58.9778H39.1915V39.382Z" fill="#B36FF7" style="fill:#B36FF7;fill:color(display-p3 0.7020 0.4353 0.9686);fill-opacity:1;"/>
<path opacity="0.25" d="M58.7902 39.382H39.1943V58.9778H58.7902V39.382Z" fill="#B36FF7" style="fill:#B36FF7;fill:color(display-p3 0.7020 0.4353 0.9686);fill-opacity:1;"/>
<path d="M97.9816 39.382H78.3857V58.9778H97.9816V39.382Z" fill="#B36FF7" style="fill:#B36FF7;fill:color(display-p3 0.7020 0.4353 0.9686);fill-opacity:1;"/>
<path opacity="0.75" d="M78.3859 39.382H58.79V58.9778H78.3859V39.382Z" fill="#B36FF7" style="fill:#B36FF7;fill:color(display-p3 0.7020 0.4353 0.9686);fill-opacity:1;"/>
<path opacity="0.75" d="M19.5958 78.5737H0V98.1695H19.5958V78.5737Z" fill="#B36FF7" style="fill:#B36FF7;fill:color(display-p3 0.7020 0.4353 0.9686);fill-opacity:1;"/>
<path opacity="0.1" d="M39.1915 78.5737H19.5957V98.1695H39.1915V78.5737Z" fill="#B36FF7" style="fill:#B36FF7;fill:color(display-p3 0.7020 0.4353 0.9686);fill-opacity:1;"/>
<path opacity="0.5" d="M58.7902 78.5737H39.1943V98.1695H58.7902V78.5737Z" fill="#B36FF7" style="fill:#B36FF7;fill:color(display-p3 0.7020 0.4353 0.9686);fill-opacity:1;"/>
<path opacity="0.25" d="M97.9816 78.5737H78.3857V98.1695H97.9816V78.5737Z" fill="#B36FF7" style="fill:#B36FF7;fill:color(display-p3 0.7020 0.4353 0.9686);fill-opacity:1;"/>
<path opacity="0.1" d="M78.3859 78.5737H58.79V98.1695H78.3859V78.5737Z" fill="#B36FF7" style="fill:#B36FF7;fill:color(display-p3 0.7020 0.4353 0.9686);fill-opacity:1;"/>
<path opacity="0.1" d="M39.1915 58.9778H19.5957V78.5737H39.1915V58.9778Z" fill="#B36FF7" style="fill:#B36FF7;fill:color(display-p3 0.7020 0.4353 0.9686);fill-opacity:1;"/>
<path d="M58.7902 58.9778H39.1943V78.5737H58.7902V58.9778Z" fill="#B36FF7" style="fill:#B36FF7;fill:color(display-p3 0.7020 0.4353 0.9686);fill-opacity:1;"/>
<path opacity="0.25" d="M78.3859 58.9778H58.79V78.5737H78.3859V58.9778Z" fill="#B36FF7" style="fill:#B36FF7;fill:color(display-p3 0.7020 0.4353 0.9686);fill-opacity:1;"/>
<path d="M19.5958 58.9778H0V78.5737H19.5958V58.9778Z" fill="#B36FF7" style="fill:#B36FF7;fill:color(display-p3 0.7020 0.4353 0.9686);fill-opacity:1;"/>
<path opacity="0.75" d="M97.9816 58.9778H78.3857V78.5737H97.9816V58.9778Z" fill="#B36FF7" style="fill:#B36FF7;fill:color(display-p3 0.7020 0.4353 0.9686);fill-opacity:1;"/>
</svg>
